<?xml version="1.0" encoding="utf-8"?>
<!-- Generator: Adobe Illustrator 23.1.0, SVG Export Plug-In . SVG Version: 6.00 Build 0)  -->
<svg version="1.1" xmlns="http://www.w3.org/2000/svg" xmlns:xlink="http://www.w3.org/1999/xlink" x="0px" y="0px"
	 viewBox="0 0 500 500" style="enable-background:new 0 0 500 500;" xml:space="preserve">
<style type="text/css">
	.st0{display:none;}
	.st1{display:inline;fill:#15324F;}
	.st2{fill:#E5556B;}
	.st3{fill:#15324F;}
</style>
<g id="BACKGROUND" class="st0">
	<rect class="st1" width="500" height="500"/>
</g>
<g id="OBJECTS">
	<g>
		<g>
			<path class="st2" d="M85.54,267.99c0,39,14.37,74.68,38.06,102.1c6.03-5.99,11.21-12.9,15.35-20.43
				c-17.83-22.46-28.53-50.83-28.53-81.67c0-72.55,59.03-131.58,131.58-131.58c33.05,0,63.28,12.28,86.41,32.48
				c5.36-6.01,7.46-14.3,7.01-22c-0.1-1.64-0.45-3.3-0.91-4.97c-25.93-19.08-57.92-30.38-92.51-30.38
				C155.72,111.54,85.54,181.72,85.54,267.99z"/>
			<path class="st2" d="M44.41,267.99c0,46.42,16.13,89.12,43.03,122.88c8.5-2.12,16.41-5.74,23.58-10.5
				c-25.98-30.23-41.73-69.49-41.73-112.39c0-95.23,77.48-172.71,172.71-172.71c33.3,0,64.41,9.5,90.82,25.89
				c2-4.02,5.44-7.35,9.39-9.57c4.46-2.5,9.51-3.71,14.6-4.27C324.42,84.13,284.79,70.41,242,70.41
				C133.05,70.41,44.41,159.04,44.41,267.99z"/>
			<path class="st2" d="M64.53,399.57c1.77-1.43,3.79-2.58,5.93-3.56c-26.74-35.73-42.59-80.06-42.59-128.02
				c0-118.06,96.05-214.12,214.12-214.12c55.62,0,106.35,21.33,144.46,56.23c11.18,3.11,21.89,8.33,31.61,14.71
				c12.07,7.93,22.82,17.6,33.14,27.74C410.42,78.95,331.94,29,242,29C110.21,29,3,136.21,3,267.99
				c0,55.91,19.3,107.38,51.58,148.14C55.99,410.19,58.86,404.17,64.53,399.57z"/>
		</g>
		<g>
			<path class="st3" d="M195.97,414.52c17.22-3.4,34.77-8.02,49.73-17.47c14.59-9.23,24.3-23.25,34.33-36.87
				c10.7-14.46,22.33-27.01,37.81-36.4c14.51-8.76,30.71-14.24,46.71-19.49c16.09-5.22,32.37-10.2,47.52-17.8
				c13.46-6.74,25.43-16.03,34.91-27.75c-20.62-15.48-37.76-35.99-44.75-61.12c-5.47-19.65-3.4-42.18,7.05-59.9
				c-0.97-0.75-1.99-1.41-2.96-2.1c-11.58-8.1-24.44-16-38.56-15.7c-7.74,0.22-16.25,3.87-18.58,11.25
				c-2.13,6.77,1.66,13.85,2.54,20.87c1.41,10.64-4.01,21.31-12,28.5c-7.96,7.16-18.19,11.33-28.42,14.43
				c-26.98,8.21-56.86,9.62-84.72,5.28c1.52-6.39,3.01-13.16,0.91-19.35c-2.1-6.19-9.34-11.11-15.26-8.32
				c-3.37,1.6-5.33,5.09-6.97,8.43c-6.88,14.07-11.53,29.05-15.18,44.31c8.21,0.88,16.36,3.43,24.41,4.62
				c3.95,0.55,6.58,3.84,6.33,7.82c-0.25,3.76-4.15,6.88-7.88,6.33c-5.83-0.88-11.55-2.38-17.36-3.48c-2.85-0.53-5.72-1-8.62-1.22
				c-1.35,6.74-2.6,13.43-3.79,20.15c-0.08,0.44-0.17,0.88-0.25,1.3c8.02,0.58,15.95,2.74,23.99,3.4c3.98,0.3,6.55,4.06,6.33,7.82
				c-0.28,3.93-4.17,6.63-7.88,6.33c-5.45-0.44-10.78-1.66-16.2-2.54c-2.76-0.44-5.53-0.83-8.29-0.97h-0.53
				c-1.08,5.69-2.16,11.33-3.37,16.97c7.85,0.94,15.7,2.13,23.61,2.63c4.01,0.22,6.55,4.12,6.33,7.85c-0.25,3.93-4.15,6.52-7.85,6.3
				c-8.51-0.53-16.94-1.88-25.4-2.85c-2.87,11.19-6.36,22.2-11,32.78c-10.95,24.99-29.11,47.9-54.15,58.79
				c-7.79,3.4-16.23,5.64-23.61,9.7C118.19,425.91,159.59,421.68,195.97,414.52z M203.93,386.93c9.45-3.95,18.58-8.57,26.54-14.62
				c3.98-3.01,7.79-6.19,11.2-9.79c3.43-3.57,6.58-7.52,9.62-11.64c6.22-8.15,12-17.19,19.24-25.54c3.62-4.15,7.74-8.04,12.11-11.5
				c2.16-1.77,4.45-3.32,6.72-4.89c2.38-1.41,4.7-2.9,7.13-4.15c9.65-5.28,19.93-8.82,30.24-11.64c10.37-2.68,20.79-4.7,31.32-6.14
				c-19.82,7.49-40.03,14.18-57.16,25.21c-8.51,5.56-16.17,11.97-22.36,19.87c-6.39,7.79-11.97,16.64-18.38,25.38
				c-3.29,4.31-6.8,8.6-10.75,12.58c-3.95,3.98-8.24,7.6-12.85,10.73c-9.23,6.22-19.27,11-29.66,14.21
				c-20.81,6.63-42.29,8.04-63.44,8.15C164.1,398.51,184.94,394.67,203.93,386.93z"/>
			<path class="st3" d="M455.76,246.24c9.26-15.19,14.9-32.49,16.11-50.15c-3.74-5.12-7.8-10.03-12.03-14.76
				c-11.46-12.75-24.38-24.05-38.03-34.44c-7.95,14.52-9.13,32.17-4.5,48.26C423.36,216.15,438.6,233.28,455.76,246.24z"/>
			<path class="st3" d="M401.71,335.46c18.8-6.03,35.63-16.17,50.03-29.16h43.62l-23.5-3.95l-13.63-2.27l-22.69-3.81l29.31-3.36
				c13.88-15.42,22.98-31.61,30.5-51.29c-2.76-8.98-6.47-17.64-10.97-25.9c-4.84,21.53-15.29,41.85-30.35,58.08
				c-11.72,12.72-25.82,22.36-41.57,29.44c-16.42,7.41-33.81,12.25-50.83,18.02c-15.95,5.45-32.09,11.69-45.55,22.06
				c-14.4,11.11-23.72,26.73-34.83,40.83c-11.75,14.95-25.79,26.62-43.37,34.08c-18.24,7.74-38.09,11.58-57.58,14.54
				c-36.16,5.56-75.6,5-107.25-14.98c-4.01,6.36-5.33,14.18-1.38,20.34c7.6,11.78,24.02,17.47,37.87,19.79
				c3.95,0.66,7.93,1.08,11.94,1.27l-0.22,0.22h374.1l-193.8-10.23l-66.64-3.54l-49.23-2.6l72.17-6.26
				c19.85-8.43,30.1-18.2,45.95-34.96c6.22-6.57,10.42-14.93,15.59-22.39h175.97L358.03,364.9l-24.41-2.57l-15.12-1.6l-9.92-1.05
				l34.34-4.38C361.88,342.47,380.7,342.21,401.71,335.46z"/>
		</g>
	</g>
</g>
</svg>
